<svg xmlns="http://www.w3.org/2000/svg" viewBox="0 0 64 64">
  <!-- ICON SLOT jammin: cratered asteroid. Replace this file. -->
  <rect width="64" height="64" rx="16" fill="#12151c"/>
  <circle cx="12" cy="13" r="1.3" fill="#fff"/>
  <circle cx="50" cy="11" r="1.1" fill="#fff"/>
  <circle cx="54" cy="22" r="0.9" fill="#d6e2ff"/>
  <path d="M17 40 L23 24 L31 15 L40 13 L49 21 L53 33 L49 46 L40 53 L28 54 L18 47 Z" fill="#e6d9c4"/>
  <path d="M31 15 L40 13 L49 21 L41 25 L32 20 Z" fill="#f8f3ea"/>
  <ellipse cx="35" cy="35" rx="7" ry="5.2" fill="#8a7864"/>
  <ellipse cx="34.2" cy="34.2" rx="4" ry="2.8" fill="#2c261f"/>
  <ellipse cx="45" cy="41" rx="2.6" ry="2" fill="#5a4c3e"/>
  <path d="M22 30 l3 1 l-2 2 z" fill="#6d5e4d"/>
</svg>
